<svg xmlns="http://www.w3.org/2000/svg" viewBox="0 0 212.8 60" fill="none">
  <defs>
    <linearGradient id="g" x1="0" y1="0" x2="0" y2="1">
      <stop offset="0%" stop-color="#F7B840"/>
      <stop offset="50%" stop-color="#F09820"/>
      <stop offset="100%" stop-color="#D95E08"/>
    </linearGradient>
  </defs>
  <path d="M1.0 51.0V32.1L9.5 26.6V51.0Z" fill="url(#g)"/>
  <path d="M12.5 51.0V22.7L21.0 17.2V51.0Z" fill="url(#g)"/>
  <path d="M24.0 51.0V13.3L32.5 7.8V51.0Z" fill="url(#g)"/>
  <path transform="translate(47.00,46.8) scale(0.021094,-0.021094)" d="M449 0 49 1490H382L555 757Q578 654 597.5 537.0Q617 420 635 305Q655 420 676.0 537.0Q697 654 722 757L904 1490H1221L1402 757Q1427 655 1448.0 539.0Q1469 423 1489 309Q1507 423 1526.5 539.0Q1546 655 1569 757L1742 1490H2076L1675 0H1327L1129 762Q1109 843 1093.0 932.5Q1077 1022 1061 1118Q1047 1025 1032.0 935.5Q1017 846 995 762L798 0Z" fill="#1B1B1F"/>
  <path transform="translate(90.98,46.8) scale(0.021094,-0.021094)" d="M135 0V1490H1132V1237H440V877H1080V628H440V253H1134V0Z" fill="#1B1B1F"/>
  <path transform="translate(115.22,46.8) scale(0.021094,-0.021094)" d="M550 -20Q418 -20 313.5 47.5Q209 115 149.0 244.0Q89 373 89 557Q89 743 150.0 871.5Q211 1000 315.5 1066.0Q420 1132 549 1132Q649 1132 712.5 1098.5Q776 1065 813.0 1018.5Q850 972 870 933H881V1490H1141V0H886V177H870Q849 137 811.0 91.0Q773 45 709.5 12.5Q646 -20 550 -20ZM621 194Q748 194 817.0 294.5Q886 395 886 558Q886 721 817.5 819.5Q749 918 621 918Q489 918 422.0 816.0Q355 714 355 558Q355 401 422.5 297.5Q490 194 621 194Z" fill="#1B1B1F"/>
  <path transform="translate(141.34,46.8) scale(0.021094,-0.021094)" d="M549 -20Q418 -20 314.0 47.5Q210 115 149.5 244.0Q89 373 89 557Q89 743 150.5 871.5Q212 1000 317.0 1066.0Q422 1132 551 1132Q650 1132 713.5 1099.0Q777 1066 814.0 1019.5Q851 973 870 933H882V1118H1141V0H883V177H870Q850 136 812.0 90.0Q774 44 710.0 12.0Q646 -20 549 -20ZM622 194Q749 194 818.0 294.5Q887 395 887 558Q887 721 819.0 819.5Q751 918 622 918Q490 918 422.5 816.5Q355 715 355 558Q355 401 423.0 297.5Q491 194 622 194Z" fill="#1B1B1F"/>
  <path transform="translate(167.45,46.8) scale(0.021094,-0.021094)" d="M655 1118V914H439V315Q439 254 464.5 225.5Q490 197 550 197Q568 197 597.0 201.5Q626 206 645 210L686 9Q643 -4 598.0 -9.5Q553 -15 512 -15Q351 -15 265.0 65.0Q179 145 179 293V914H20V1118H179V1384H439V1118Z" fill="#1B1B1F"/>
  <path transform="translate(181.86,46.8) scale(0.021094,-0.021094)" d="M549 -20Q418 -20 314.0 47.5Q210 115 149.5 244.0Q89 373 89 557Q89 743 150.5 871.5Q212 1000 317.0 1066.0Q422 1132 551 1132Q650 1132 713.5 1099.0Q777 1066 814.0 1019.5Q851 973 870 933H882V1118H1141V0H883V177H870Q850 136 812.0 90.0Q774 44 710.0 12.0Q646 -20 549 -20ZM622 194Q749 194 818.0 294.5Q887 395 887 558Q887 721 819.0 819.5Q751 918 622 918Q490 918 422.5 816.5Q355 715 355 558Q355 401 423.0 297.5Q491 194 622 194Z" fill="#1B1B1F"/>
</svg>